<?xml version="1.0" encoding="UTF-8"?>
<svg viewBox="0 0 600 600" xmlns="http://www.w3.org/2000/svg">
<circle cx="300" cy="300" r="290" fill="gray"/>
<path d="m300 10a145 145 0 1 0 0 290 145 145 0 0 1 0 290 290 290 0 1 0 0-580" fill="#fff"/>
<circle cx="300" cy="155" r="40" fill="gray"/>
<circle cx="300" cy="445" r="40" fill="#fff"/>
<g transform="rotate(300,300,300)">
<path d="m290 300 10-150 10 150-10 50z"></path>
</g>
<g transform="rotate(30,300,300)">
<path d="m290 300 10-220 10 220-10 80z"></path>
</g>
<g transform="rotate(150,300,300)">
<path d="m293 300 7-250 7 250-7 80z"></path>
</g>
<circle cx="300" cy="300" r="290" fill="none" stroke="#000" stroke-width="1.5px"/>
</svg>

